<svg xmlns="http://www.w3.org/2000/svg" viewBox="0 0 180 220" role="img" aria-label="World Cup 26">
  <defs>
    <linearGradient id="shield" x1="0" x2="1" y1="0" y2="1">
      <stop offset="0" stop-color="#17385d"/>
      <stop offset=".46" stop-color="#f5f8fb"/>
      <stop offset="1" stop-color="#d7424b"/>
    </linearGradient>
    <linearGradient id="gold" x1="0" x2="1" y1="0" y2="1">
      <stop offset="0" stop-color="#fff2a8"/>
      <stop offset=".45" stop-color="#ffd36a"/>
      <stop offset="1" stop-color="#b87320"/>
    </linearGradient>
    <filter id="glow" x="-40%" y="-40%" width="180%" height="180%">
      <feGaussianBlur stdDeviation="5" result="blur"/>
      <feMerge>
        <feMergeNode in="blur"/>
        <feMergeNode in="SourceGraphic"/>
      </feMerge>
    </filter>
  </defs>
  <path d="M22 10h136c7 0 12 5 12 12v118c0 35-38 59-80 70-42-11-80-35-80-70V22c0-7 5-12 12-12Z" fill="url(#shield)" stroke="#d8e7f7" stroke-width="4"/>
  <path d="M41 33h98v45H41z" fill="#06111f" opacity=".9"/>
  <text x="90" y="54" text-anchor="middle" font-family="Arial, Helvetica, sans-serif" font-size="22" font-weight="900" fill="#f5f8fb">WORLD</text>
  <text x="90" y="77" text-anchor="middle" font-family="Arial, Helvetica, sans-serif" font-size="26" font-weight="900" fill="#ffd36a">CUP</text>
  <circle cx="90" cy="121" r="34" fill="#06111f" stroke="#ffd36a" stroke-width="4" filter="url(#glow)"/>
  <path d="M90 90c17 14 29 27 29 43 0 17-13 30-29 30s-29-13-29-30c0-16 12-29 29-43Z" fill="url(#gold)"/>
  <path d="M73 122h34M90 101v54" stroke="#704915" stroke-width="6" stroke-linecap="round" opacity=".55"/>
  <text x="90" y="130" text-anchor="middle" font-family="Arial, Helvetica, sans-serif" font-size="26" font-weight="900" fill="#06111f">26</text>
</svg>
